# xmcd
#
# Track frame offsets: 
#        182
#        11162
#        33710
#        52145
#        66260
#        89690
#        100110
#        115585
#        133672
#        144225
#        163640
#        176457
#        198017
#        223022
#        250425
#
# Disc length: 3507 seconds
#
# Revision: 0
# Processed by: cddbd v1.5.1PL0 Copyright (c) Steve Scherf et al.
# Submitted via: ExactAudioCopy v0.95a5
#
DISCID=d90db10f
DTITLE=Mark Hummel - Harmonica Party
DYEAR=1993
DGENRE=Blues
TTITLE0=I'm Gone
TTITLE1=Humblebug
TTITLE2=Hung Down Head
TTITLE3=Harp Shuffle
TTITLE4=Don't Need Another Heartache
TTITLE5=Let Me Go
TTITLE6=Mean Mean Woman
TTITLE7=Backscratcher
TTITLE8=Don't Boss Me Baby
TTITLE9=Harmonica Party
TTITLE10=Can't Do That No More
TTITLE11=Hand Jive
TTITLE12=City Livin'
TTITLE13=Feelin' Good
TTITLE14=I Wonder Why
EXTD=
EXTT0=
EXTT1=
EXTT2=
EXTT3=
EXTT4=
EXTT5=
EXTT6=
EXTT7=
EXTT8=
EXTT9=
EXTT10=
EXTT11=
EXTT12=
EXTT13=
EXTT14=
PLAYORDER=
